<svg xmlns="http://www.w3.org/2000/svg" viewBox="0 0 50 49" width="50" height="49">
	<defs>
		<clipPath clipPathUnits="userSpaceOnUse" id="cp1">
			<path d="M-1224 -2319L216 -2319L216 1801L-1224 1801Z" />
		</clipPath>
	</defs>
	<style>
		tspan { white-space:pre }
		.shp0 { fill: #ffffff } 
		.shp1 { fill: #61798e } 
	</style>
	<g id="About" clip-path="url(#cp1)">
		<g id="Group 11267">
			<path id="Rectangle 398" class="shp0" d="M4.76 0L45.76 0C47.97 0 49.76 1.79 49.76 4L49.76 45C49.76 47.21 47.97 49 45.76 49L4.76 49C2.55 49 0.76 47.21 0.76 45L0.76 4C0.76 1.79 2.55 0 4.76 0Z" />
			<g id="np_book_851265_000000">
				<path id="Path 10416" class="shp1" d="M15.76 38L16.76 38L16.76 36L15.76 36C15.32 36 14.76 36.45 14.76 36C14.76 35.56 15.32 35 15.76 35L34.76 35C35.86 35 36.76 34.12 36.76 33L36.76 32C36.19 32.39 35.5 33 34.76 33L15.76 33C14.66 33 13.76 33.88 13.76 35L13.76 35C13.76 36.24 14.54 38 15.76 38Z" />
				<path id="Path 10417" class="shp1" d="M13.76 14L13.76 32C14.34 31.61 15.01 32 15.76 32L15.76 32L15.76 12C14.53 12 13.76 12.77 13.76 14Z" />
				<path id="Path 10418" class="shp1" d="M16.76 12L16.76 32L34.76 32C35.88 32 36.76 31.12 36.76 30L36.76 14C36.76 12.76 36 12 34.76 12L16.76 12Z" />
				<path id="Path 10419" class="shp1" d="M22.76 36L22.76 38L34.76 38C35.86 38 36.57 37.04 36.76 36C36.19 36.38 35.49 36 34.76 36L22.76 36Z" />
				<path id="Path 10420" class="shp1" d="M19.76 39C19.95 38.88 20.57 38.88 20.76 39L21.76 40L21.76 36L17.76 36L17.76 40L19.76 39Z" />
			</g>
		</g>
	</g>
</svg>