<svg xmlns="http://www.w3.org/2000/svg" viewBox="0 0 21 17" width="21" height="17"><defs><clipPath clipPathUnits="userSpaceOnUse" id="cp1"><path d="M-819-1912H621v4804H-819z"/></clipPath></defs><style></style><g id="Homepage" clip-path="url(#cp1)"><g id="Group 11329"><g id="Group 11328"><path id="Path 3" d="M18.35 4c.25 5.68-4.5 12-12 12-2.28 0-4.22.15-6-1 2.14.25 4.3-.67 6-2-1.77-.03-3.49-1.4-4-3 .63.12 1.43.15 2 0-1.95-.39-3.04-2.13-3-4 .54.3 1.34-.02 2 0-1.8-1.2-3.06-3.18-2-5 1.99 2.44 5.64 3.83 9 4-.59-2.53 1.39-5 4-5 1.16 0 2.26 1.21 3 2 .92-.18 1.22-.54 2-1-.3.94-1.17 1.5-2 2 .81-.1 2.27-.68 3-1-.54.81-1.21 1.43-2 2z" fill="#6187d3"/></g></g></g></svg>