<svg xmlns="http://www.w3.org/2000/svg" viewBox="0 0 50 49" width="50" height="49">
	<defs>
		<clipPath clipPathUnits="userSpaceOnUse" id="cp1">
			<path d="M-416 -2319L1024 -2319L1024 1801L-416 1801Z" />
		</clipPath>
	</defs>
	<style>
		tspan { white-space:pre }
		.shp0 { fill: #ffffff } 
		.shp1 { fill: #61798e } 
	</style>
	<g id="About" clip-path="url(#cp1)">
		<g id="Group 11268">
			<path id="Rectangle 396" class="shp0" d="M4.76 0L45.76 0C47.97 0 49.76 1.79 49.76 4L49.76 45C49.76 47.21 47.97 49 45.76 49L4.76 49C2.55 49 0.76 47.21 0.76 45L0.76 4C0.76 1.79 2.55 0 4.76 0Z" />
			<g id="Group 11127">
				<path id="np_pen_182825_000000" fill-rule="evenodd" class="shp1" d="M37.76 19.5L30.76 12.5C30.09 11.83 29.43 11.83 28.76 12.5L24.76 15.5L34.76 25.5L37.76 21.5C38.43 20.83 38.43 20.17 37.76 19.5ZM23.76 16.5L15.76 19.5C15.55 19.6 14.95 20.31 14.76 20.5C14.61 20.65 14.82 21.24 14.76 21.5L10.76 38.5L18.76 30.5C18.45 29.98 17.76 29.16 17.76 28.5C17.76 26.57 19.83 25.5 21.76 25.5C23.69 25.5 24.76 26.57 24.76 28.5C24.76 30.44 23.69 32.5 21.76 32.5C21.1 32.5 20.29 31.82 19.76 31.5L11.76 39.5L28.76 35.5C29.01 35.44 29.59 35.67 29.76 35.5C29.91 35.35 30.65 34.84 30.76 34.5L33.76 26.5L23.76 16.5Z" />
			</g>
		</g>
	</g>
</svg>