<svg xmlns="http://www.w3.org/2000/svg" viewBox="0 0 18 18" width="18" height="18">
	<defs>
		<clipPath clipPathUnits="userSpaceOnUse" id="cp1">
			<path d="M-782 -1911L658 -1911L658 2893L-782 2893Z" />
		</clipPath>
	</defs>
	<style>
		tspan { white-space:pre }
		.shp0 { fill: #2d638f } 
	</style>
	<g id="Homepage " clip-path="url(#cp1)">
		<g id="Group 11329">
			<g id="Group 11328">
				<path id="iconmonstr-linkedin-1" fill-rule="evenodd" class="shp0" d="M2.02 0C1.01 0 0.18 0.83 0.18 1.85C0.18 2.87 1.01 3.7 2.02 3.7C3.03 3.7 3.85 2.87 3.85 1.85C3.85 0.83 3.03 0 2.02 0ZM3.87 5.17L0.17 5.17L0.17 17L3.87 17L3.87 5.17ZM6.09 5.17L6.09 17L9.77 17L9.77 10.79C9.77 7.34 14.22 7.06 14.22 10.79L14.22 17L17.91 17L17.91 9.51C17.91 3.69 11.31 3.9 9.77 6.77L9.77 5.17L6.09 5.17Z" />
			</g>
		</g>
	</g>
</svg>