<svg xmlns="http://www.w3.org/2000/svg" viewBox="0 0 50 49" width="50" height="49"><defs><clipPath clipPathUnits="userSpaceOnUse" id="cp1"><path d="M-1224-2319H216v4120h-1440z"/></clipPath></defs><style>.shp1{fill:#61798e}</style><g id="About" clip-path="url(#cp1)"><g id="Group 11267"><path id="Rectangle 398" d="M4.76 0h41c2.21 0 4 1.79 4 4v41c0 2.21-1.79 4-4 4h-41c-2.21 0-4-1.79-4-4V4c0-2.21 1.79-4 4-4z" fill="#fff"/><g id="np_book_851265_000000"><path id="Path 10416" class="shp1" d="M15.76 38h1v-2h-1c-.44 0-1 .45-1 0 0-.44.56-1 1-1h19c1.1 0 2-.88 2-2v-1c-.57.39-1.26 1-2 1h-19c-1.1 0-2 .88-2 2 0 1.24.78 3 2 3z"/><path id="Path 10417" class="shp1" d="M13.76 14v18c.58-.39 1.25 0 2 0V12c-1.23 0-2 .77-2 2z"/><path id="Path 10418" class="shp1" d="M16.76 12v20h18c1.12 0 2-.88 2-2V14c0-1.24-.76-2-2-2h-18z"/><path id="Path 10419" class="shp1" d="M22.76 36v2h12c1.1 0 1.81-.96 2-2-.57.38-1.27 0-2 0h-12z"/><path id="Path 10420" class="shp1" d="M19.76 39c.19-.12.81-.12 1 0l1 1v-4h-4v4l2-1z"/></g></g></g></svg>