<svg xmlns="http://www.w3.org/2000/svg" viewBox="0 0 50 49" width="50" height="49"><defs><clipPath clipPathUnits="userSpaceOnUse" id="cp1"><path d="M-416-2319h1440v4120H-416z"/></clipPath></defs><style></style><g id="About" clip-path="url(#cp1)"><g id="Group 11268"><path id="Rectangle 396" d="M4.76 0h41c2.21 0 4 1.79 4 4v41c0 2.21-1.79 4-4 4h-41c-2.21 0-4-1.79-4-4V4c0-2.21 1.79-4 4-4z" fill="#fff"/><g id="Group 11127"><path id="np_pen_182825_000000" fill-rule="evenodd" d="M37.76 19.5l-7-7c-.67-.67-1.33-.67-2 0l-4 3 10 10 3-4c.67-.67.67-1.33 0-2zm-14-3l-8 3c-.21.1-.81.81-1 1-.15.15.06.74 0 1l-4 17 8-8c-.31-.52-1-1.34-1-2 0-1.93 2.07-3 4-3 1.93 0 3 1.07 3 3 0 1.94-1.07 4-3 4-.66 0-1.47-.68-2-1l-8 8 17-4c.25-.06.83.17 1 0 .15-.15.89-.66 1-1l3-8-10-10z" fill="#61798e"/></g></g></g></svg>