<svg xmlns="http://www.w3.org/2000/svg" viewBox="0 0 50 49" width="50" height="49"><defs><clipPath clipPathUnits="userSpaceOnUse" id="cp1"><path d="M-820-2319H620v4120H-820z"/></clipPath></defs><style></style><g id="About" clip-path="url(#cp1)"><g id="Group 11266"><path id="Rectangle 397" d="M4.76 0h41c2.21 0 4 1.79 4 4v41c0 2.21-1.79 4-4 4h-41c-2.21 0-4-1.79-4-4V4c0-2.21 1.79-4 4-4z" fill="#fff"/><path id="np_graph_86995_000000" fill-rule="evenodd" d="M8.87 40c-.36 0-.74.25-1 0-.25-.25 0-.64 0-1V13c0-.75.25-1 1-1s2 .25 2 1v24h29c.75 0 1 1.25 1 2s-.25 1-1 1h-31zm23-5V14c0-.11.93.07 1 0 .08-.07-.1-1 0-1h6c.11 0 .93.93 1 1v21c-.07.08-.89 0-1 0h-6c-.07-.07-1 .11-1 0zm-9 0c-.03-.03-.03-.02-.03 0-.01.01 0 .02.01.02.01.01.01.02.02.01.02.01.04 0 0-.03zm-.02.02c.01.01.01.01.02.01V17h7v18h-7.03c0 .01.01.02.01.02zM22.87 17c-.03.03-.03.02-.03 0 0-.01 0-.02.01-.02.01-.01.01-.02.02-.01.02-.01.04 0 0 .03zm0-.03c-.01 0-.02.01-.02.01s-.01.01-.01.02h.03v-.03zm7 .03c-.03-.03-.01-.04.01-.03 0-.01.01 0 .02.01.01 0 .01.01 0 .02.01.02.01.03-.03 0zm.03 0v-.02c-.01-.01-.02-.01-.02-.01-.01 0-.01.01-.01.03h.03zm-.03 18c.04-.03.04-.02.03 0 .01.01.01.02 0 .02-.01.01-.02.02-.02.01-.02.01-.04 0-.01-.03zm.01.03s.01 0 .02-.01V35h-.03c0 .02 0 .03.01.03zm-17.01 0c-.01.01-.01 0-.02-.01-.01 0-.02-.01-.01-.02 0-.02 0-.03.03 0 .04.03.02.04 0 .03zm-.02-.01c.01.01.01.01.02.01V35h-.03c0 .01.01.02.01.02zm.02-.02V21c.04-.03.02-.04 0-.03-.01-.01-.01 0-.02.01-.01 0-.01.01-.01.02 0 .02 0 .03.03 0v-.03c-.01 0-.01 0-.02.01 0 0-.01.01-.01.02h7.03c.04.03.04.02.03 0 .01-.01 0-.02-.01-.02 0-.01-.01-.02-.01-.01-.02-.01-.04 0-.01.03h.03c0-.01 0-.02-.01-.02l-.01-.01c-.01.01-.01.01-.01.03v14c-.03.03-.01.04.01.03 0 .01.01 0 .01-.01.01 0 .02-.01.01-.02.01-.02.01-.03-.03 0 0 .02 0 .03.01.03 0 0 .01 0 .01-.01.01 0 .01-.01.01-.02h-7.03zm27 3z" fill="#61798e"/></g></g></svg>